<svg id="Layer_1" data-name="Layer 1" xmlns="http://www.w3.org/2000/svg" viewBox="0 0 4155.55 630.65"><defs><style>.cls-1{fill:#320031;}.cls-2{fill:#490548;}</style></defs><rect class="cls-1" x="2888.16" y="245.56" width="47.44" height="108.83"/><path class="cls-1" d="M2549.77,220.45h131.9a0,0,0,0,1,0,0V240a0,0,0,0,1,0,0H2544.93a0,0,0,0,1,0,0v-14.7A4.83,4.83,0,0,1,2549.77,220.45Z"/><rect class="cls-1" x="2477.96" y="290.21" width="83.71" height="30.7"/><rect class="cls-2" x="2249.14" y="170.22" width="22.32" height="11.16"/><rect class="cls-2" x="2249.14" y="192.54" width="22.32" height="11.16"/><rect class="cls-2" x="2249.14" y="214.87" width="22.32" height="11.16"/><rect class="cls-2" x="2249.14" y="237.19" width="22.32" height="11.16"/><rect class="cls-2" x="2249.14" y="259.52" width="22.32" height="11.16"/><rect class="cls-2" x="2249.14" y="281.84" width="22.32" height="11.16"/><rect class="cls-2" x="2249.14" y="304.16" width="22.32" height="11.16"/><rect class="cls-2" x="2249.14" y="326.49" width="22.32" height="11.16"/><rect class="cls-2" x="2249.14" y="348.81" width="22.32" height="11.16"/><rect class="cls-2" x="2427.73" y="170.22" width="22.32" height="11.16"/><rect class="cls-2" x="2427.73" y="192.54" width="22.32" height="11.16"/><rect class="cls-2" x="2427.73" y="214.87" width="22.32" height="11.16"/><rect class="cls-2" x="2427.73" y="237.19" width="22.32" height="11.16"/><rect class="cls-2" x="2427.73" y="259.52" width="22.32" height="11.16"/><rect class="cls-2" x="2427.73" y="281.84" width="22.32" height="11.16"/><rect class="cls-2" x="2427.73" y="304.16" width="22.32" height="11.16"/><rect class="cls-1" x="1998" y="25.11" width="150.69" height="27.9"/><rect class="cls-2" x="1998" y="5.58" width="181.38" height="19.53"/><rect class="cls-1" x="2176.59" y="108.83" width="19.53" height="259.52"/><rect class="cls-2" x="2285.42" y="133.94" width="44.65" height="22.32"/><rect class="cls-2" x="2371.92" y="133.94" width="44.65" height="22.32"/><rect class="cls-2" x="2664.93" y="11.16" width="25.11" height="8.37"/><rect class="cls-2" x="2664.93" y="25.11" width="25.11" height="8.37"/><rect class="cls-2" x="2664.93" y="39.07" width="25.11" height="8.37"/><rect class="cls-2" x="2664.93" y="53.02" width="25.11" height="8.37"/><rect class="cls-2" x="2664.93" y="66.97" width="25.11" height="8.37"/><rect class="cls-2" x="2664.93" y="80.92" width="25.11" height="8.37"/><rect class="cls-2" x="2664.93" y="94.88" width="25.11" height="8.37"/><rect class="cls-2" x="2664.93" y="108.83" width="25.11" height="8.37"/><rect class="cls-2" x="2664.93" y="122.78" width="25.11" height="8.37"/><rect class="cls-2" x="2664.93" y="136.73" width="25.11" height="8.37"/><rect class="cls-2" x="2664.93" y="150.69" width="25.11" height="8.37"/><rect class="cls-2" x="2664.93" y="164.64" width="25.11" height="8.37"/><rect class="cls-2" x="2664.93" y="178.59" width="25.11" height="8.37"/><rect class="cls-2" x="2664.93" y="192.54" width="25.11" height="8.37"/><rect class="cls-2" x="2664.93" y="206.5" width="25.11" height="8.37"/><rect class="cls-2" x="2664.93" y="220.45" width="25.11" height="8.37"/><rect class="cls-2" x="2877" y="11.16" width="25.11" height="8.37"/><rect class="cls-2" x="2877" y="25.11" width="25.11" height="8.37"/><rect class="cls-2" x="2877" y="39.07" width="25.11" height="8.37"/><rect class="cls-2" x="2877" y="53.02" width="25.11" height="8.37"/><rect class="cls-2" x="2877" y="66.97" width="25.11" height="8.37"/><rect class="cls-2" x="2877" y="80.92" width="25.11" height="8.37"/><rect class="cls-2" x="2877" y="94.88" width="25.11" height="8.37"/><rect class="cls-2" x="2877" y="108.83" width="25.11" height="8.37"/><rect class="cls-2" x="2877" y="122.78" width="25.11" height="8.37"/><rect class="cls-2" x="2877" y="136.73" width="25.11" height="8.37"/><rect class="cls-2" x="2877" y="150.69" width="25.11" height="8.37"/><rect class="cls-2" x="2877" y="164.64" width="25.11" height="8.37"/><rect class="cls-2" x="2877" y="178.59" width="25.11" height="8.37"/><rect class="cls-2" x="2877" y="192.54" width="25.11" height="8.37"/><rect class="cls-2" x="2877" y="206.5" width="25.11" height="8.37"/><rect class="cls-2" x="2877" y="220.45" width="25.11" height="8.37"/><rect class="cls-1" x="3008.16" y="161.85" width="75.34" height="25.11"/><rect class="cls-2" x="2960.72" y="145.11" width="122.78" height="16.74"/><polygon class="cls-2" points="2990.84 184.97 2990.84 352.32 2892.19 352.32 2892.19 0 2677.27 0 2677.27 239.58 2559.24 239.58 2559.24 318.85 2441.22 318.85 2441.22 155.02 2261.54 155.02 2261.54 368.17 2176.98 368.17 2176.98 52.85 1997.3 52.85 1997.3 479.15 1997.3 539.05 1997.3 630.65 3084.2 630.65 3084.2 519.67 3084.2 479.15 3084.2 184.97 2990.84 184.97"/><rect class="cls-1" x="2285.42" y="186.96" width="33.49" height="443.69"/><rect class="cls-1" x="2383.09" y="186.96" width="33.49" height="443.69"/><rect class="cls-1" x="2334.25" y="186.96" width="33.49" height="443.69"/><rect class="cls-1" x="2455.64" y="346.02" width="94.88" height="19.53"/><rect class="cls-1" x="2455.64" y="382.3" width="94.88" height="19.53"/><rect class="cls-1" x="2455.64" y="418.57" width="94.88" height="19.53"/><rect class="cls-1" x="2455.64" y="454.85" width="94.88" height="19.53"/><rect class="cls-1" x="2455.64" y="491.13" width="94.88" height="19.53"/><rect class="cls-1" x="2455.64" y="527.4" width="94.88" height="19.53"/><rect class="cls-1" x="2455.64" y="563.68" width="94.88" height="19.53"/><rect class="cls-1" x="2455.64" y="599.95" width="94.88" height="19.53"/><rect class="cls-1" x="2581.21" y="259.52" width="13.95" height="371.14"/><rect class="cls-1" x="2603.53" y="259.52" width="13.95" height="371.14"/><rect class="cls-1" x="2625.86" y="259.52" width="13.95" height="371.14"/><rect class="cls-1" x="2648.18" y="259.52" width="13.95" height="371.14"/><rect class="cls-1" x="2695.62" y="19.53" width="80.92" height="19.53"/><rect class="cls-1" x="2790.5" y="19.53" width="80.92" height="19.53"/><rect class="cls-1" x="2695.62" y="55.81" width="80.92" height="19.53"/><rect class="cls-1" x="2790.5" y="55.81" width="80.92" height="19.53"/><rect class="cls-1" x="2695.62" y="92.09" width="80.92" height="19.53"/><rect class="cls-1" x="2790.5" y="92.09" width="80.92" height="19.53"/><rect class="cls-1" x="2695.62" y="128.36" width="80.92" height="19.53"/><rect class="cls-1" x="2790.5" y="128.36" width="80.92" height="19.53"/><rect class="cls-1" x="2695.62" y="164.64" width="80.92" height="19.53"/><rect class="cls-1" x="2790.5" y="164.64" width="80.92" height="19.53"/><rect class="cls-1" x="2695.62" y="200.92" width="80.92" height="19.53"/><rect class="cls-1" x="2790.5" y="200.92" width="80.92" height="19.53"/><rect class="cls-1" x="2695.62" y="237.19" width="80.92" height="19.53"/><rect class="cls-1" x="2790.5" y="237.19" width="80.92" height="19.53"/><rect class="cls-1" x="2695.62" y="273.47" width="80.92" height="19.53"/><rect class="cls-1" x="2790.5" y="273.47" width="80.92" height="19.53"/><rect class="cls-1" x="2695.62" y="309.74" width="80.92" height="19.53"/><rect class="cls-1" x="2790.5" y="309.74" width="80.92" height="19.53"/><rect class="cls-1" x="2695.62" y="346.02" width="80.92" height="19.53"/><rect class="cls-1" x="2790.5" y="346.02" width="80.92" height="19.53"/><rect class="cls-1" x="2695.62" y="382.3" width="80.92" height="19.53"/><rect class="cls-1" x="2790.5" y="382.3" width="80.92" height="19.53"/><rect class="cls-1" x="2695.62" y="418.57" width="80.92" height="19.53"/><rect class="cls-1" x="2790.5" y="418.57" width="80.92" height="19.53"/><rect class="cls-1" x="2695.62" y="454.85" width="80.92" height="19.53"/><rect class="cls-1" x="2790.5" y="454.85" width="80.92" height="19.53"/><rect class="cls-1" x="2695.62" y="491.13" width="80.92" height="19.53"/><rect class="cls-1" x="2790.5" y="491.13" width="80.92" height="19.53"/><rect class="cls-1" x="2695.62" y="527.4" width="80.92" height="19.53"/><rect class="cls-1" x="2790.5" y="527.4" width="80.92" height="19.53"/><rect class="cls-1" x="2695.62" y="563.68" width="80.92" height="19.53"/><rect class="cls-1" x="2790.5" y="563.68" width="80.92" height="19.53"/><rect class="cls-1" x="2695.62" y="599.95" width="80.92" height="19.53"/><rect class="cls-1" x="2790.5" y="599.95" width="80.92" height="19.53"/><rect class="cls-1" x="2904.91" y="373.93" width="72.55" height="256.72"/><rect class="cls-1" x="3008.16" y="200.92" width="11.16" height="429.74"/><rect class="cls-1" x="3027.69" y="200.92" width="11.16" height="429.74"/><rect class="cls-1" x="3047.22" y="200.92" width="11.16" height="429.74"/><rect class="cls-1" x="3066.76" y="200.92" width="11.16" height="429.74"/><rect class="cls-1" x="2184.96" y="382.3" width="58.6" height="248.35"/><rect class="cls-1" x="1998" y="69.76" width="159.06" height="11.16"/><rect class="cls-1" x="1998" y="86.51" width="159.06" height="11.16"/><rect class="cls-1" x="1998" y="103.25" width="159.06" height="11.16"/><rect class="cls-1" x="1998" y="119.99" width="159.06" height="11.16"/><rect class="cls-1" x="1998" y="136.73" width="159.06" height="11.16"/><rect class="cls-1" x="1998" y="153.48" width="159.06" height="11.16"/><rect class="cls-1" x="1998" y="170.22" width="159.06" height="11.16"/><rect class="cls-1" x="1998" y="186.96" width="159.06" height="11.16"/><rect class="cls-1" x="1998" y="203.71" width="159.06" height="11.16"/><rect class="cls-1" x="1998" y="220.45" width="159.06" height="11.16"/><rect class="cls-1" x="1998" y="237.19" width="159.06" height="11.16"/><rect class="cls-1" x="1998" y="253.93" width="159.06" height="11.16"/><rect class="cls-1" x="1998" y="270.68" width="159.06" height="11.16"/><rect class="cls-1" x="1998" y="287.42" width="159.06" height="11.16"/><rect class="cls-1" x="1998" y="304.16" width="159.06" height="11.16"/><rect class="cls-1" x="1998" y="320.91" width="159.06" height="11.16"/><rect class="cls-1" x="1998" y="337.65" width="159.06" height="11.16"/><rect class="cls-1" x="1998" y="354.39" width="159.06" height="11.16"/><rect class="cls-1" x="1998" y="371.14" width="159.06" height="11.16"/><rect class="cls-1" x="1998" y="387.88" width="159.06" height="11.16"/><rect class="cls-1" x="1998" y="404.62" width="159.06" height="11.16"/><rect class="cls-1" x="1998" y="421.36" width="159.06" height="11.16"/><rect class="cls-1" x="1998" y="438.11" width="159.06" height="11.16"/><rect class="cls-1" x="1998" y="454.85" width="159.06" height="11.16"/><rect class="cls-1" x="1998" y="471.59" width="159.06" height="11.16"/><rect class="cls-1" x="1998" y="488.34" width="159.06" height="11.16"/><rect class="cls-1" x="1998" y="505.08" width="159.06" height="11.16"/><rect class="cls-1" x="1998" y="521.82" width="159.06" height="11.16"/><rect class="cls-1" x="1998" y="538.56" width="159.06" height="11.16"/><rect class="cls-1" x="1998" y="555.31" width="159.06" height="11.16"/><rect class="cls-1" x="1998" y="572.05" width="159.06" height="11.16"/><rect class="cls-1" x="1998" y="588.79" width="159.06" height="11.16"/><rect class="cls-1" x="1998" y="605.54" width="159.06" height="11.16"/><rect class="cls-2" x="2960.72" y="200.92" width="30.7" height="44.65"/><rect class="cls-2" x="2960.72" y="265.1" width="30.7" height="44.65"/><rect class="cls-1" x="2931.87" y="699.02" width="47.44" height="108.83" transform="translate(6196.55 1053.41) rotate(180)"/><path class="cls-1" d="M3185.8,673.9h136.73a0,0,0,0,1,0,0v19.53a0,0,0,0,1,0,0h-131.9a4.83,4.83,0,0,1-4.83-4.83V673.9A0,0,0,0,1,3185.8,673.9Z" transform="translate(6793.71 913.88) rotate(180)"/><rect class="cls-1" x="3305.8" y="743.67" width="83.71" height="30.7" transform="translate(6980.68 1064.57) rotate(180)"/><rect class="cls-2" x="3596.01" y="623.67" width="22.32" height="11.16" transform="translate(7499.71 805.06) rotate(180)"/><rect class="cls-2" x="3596.01" y="646" width="22.32" height="11.16" transform="translate(7499.71 849.7) rotate(180)"/><rect class="cls-2" x="3596.01" y="668.32" width="22.32" height="11.16" transform="translate(7499.71 894.35) rotate(180)"/><rect class="cls-2" x="3596.01" y="690.65" width="22.32" height="11.16" transform="translate(7499.71 939) rotate(180)"/><rect class="cls-2" x="3596.01" y="712.97" width="22.32" height="11.16" transform="translate(7499.71 983.65) rotate(180)"/><rect class="cls-2" x="3596.01" y="735.29" width="22.32" height="11.16" transform="translate(7499.71 1028.29) rotate(180)"/><rect class="cls-2" x="3596.01" y="757.62" width="22.32" height="11.16" transform="translate(7499.71 1072.94) rotate(180)"/><rect class="cls-2" x="3596.01" y="779.94" width="22.32" height="11.16" transform="translate(7499.71 1117.59) rotate(180)"/><rect class="cls-2" x="3596.01" y="802.27" width="22.32" height="11.16" transform="translate(7499.71 1162.24) rotate(180)"/><rect class="cls-2" x="3417.42" y="623.67" width="22.32" height="11.16" transform="translate(7142.52 805.06) rotate(180)"/><rect class="cls-2" x="3417.42" y="646" width="22.32" height="11.16" transform="translate(7142.52 849.7) rotate(180)"/><rect class="cls-2" x="3417.42" y="668.32" width="22.32" height="11.16" transform="translate(7142.52 894.35) rotate(180)"/><rect class="cls-2" x="3417.42" y="690.65" width="22.32" height="11.16" transform="translate(7142.52 939) rotate(180)"/><rect class="cls-2" x="3417.42" y="712.97" width="22.32" height="11.16" transform="translate(7142.52 983.65) rotate(180)"/><rect class="cls-2" x="3417.42" y="735.29" width="22.32" height="11.16" transform="translate(7142.52 1028.29) rotate(180)"/><rect class="cls-2" x="3417.42" y="757.62" width="22.32" height="11.16" transform="translate(7142.52 1072.94) rotate(180)"/><rect class="cls-1" x="3718.79" y="478.57" width="150.69" height="27.9" transform="translate(7873.63 531.59) rotate(180)"/><rect class="cls-2" x="3688.09" y="459.04" width="181.38" height="19.53" transform="translate(7842.94 484.15) rotate(180)"/><rect class="cls-1" x="3671.35" y="562.28" width="19.53" height="259.52" transform="translate(7647.6 930.63) rotate(180)"/><rect class="cls-2" x="3537.41" y="587.4" width="44.65" height="22.32" transform="translate(7404.83 743.67) rotate(180)"/><rect class="cls-2" x="3450.9" y="587.4" width="44.65" height="22.32" transform="translate(7231.82 743.67) rotate(180)"/><rect class="cls-2" x="3177.43" y="464.62" width="25.11" height="8.37" transform="translate(6665.35 484.15) rotate(180)"/><rect class="cls-2" x="3177.43" y="478.57" width="25.11" height="8.37" transform="translate(6665.35 512.05) rotate(180)"/><rect class="cls-2" x="3177.43" y="492.52" width="25.11" height="8.37" transform="translate(6665.35 539.96) rotate(180)"/><rect class="cls-2" x="3177.43" y="506.47" width="25.11" height="8.37" transform="translate(6665.35 567.86) rotate(180)"/><rect class="cls-2" x="3177.43" y="520.43" width="25.11" height="8.37" transform="translate(6665.35 595.77) rotate(180)"/><rect class="cls-2" x="3177.43" y="534.38" width="25.11" height="8.37" transform="translate(6665.35 623.67) rotate(180)"/><rect class="cls-2" x="3177.43" y="548.33" width="25.11" height="8.37" transform="translate(6665.35 651.58) rotate(180)"/><rect class="cls-2" x="3177.43" y="562.28" width="25.11" height="8.37" transform="translate(6665.35 679.48) rotate(180)"/><rect class="cls-2" x="3177.43" y="576.24" width="25.11" height="8.37" transform="translate(6665.35 707.39) rotate(180)"/><rect class="cls-2" x="3177.43" y="590.19" width="25.11" height="8.37" transform="translate(6665.35 735.29) rotate(180)"/><rect class="cls-2" x="3177.43" y="604.14" width="25.11" height="8.37" transform="translate(6665.35 763.2) rotate(180)"/><rect class="cls-2" x="3177.43" y="618.09" width="25.11" height="8.37" transform="translate(6665.35 791.1) rotate(180)"/><rect class="cls-2" x="3177.43" y="632.05" width="25.11" height="8.37" transform="translate(6665.35 819.01) rotate(180)"/><rect class="cls-2" x="3177.43" y="646" width="25.11" height="8.37" transform="translate(6665.35 846.91) rotate(180)"/><rect class="cls-2" x="3177.43" y="659.95" width="25.11" height="8.37" transform="translate(6665.35 874.82) rotate(180)"/><rect class="cls-2" x="3177.43" y="673.9" width="25.11" height="8.37" transform="translate(6665.35 902.72) rotate(180)"/><rect class="cls-2" x="2965.36" y="464.62" width="25.11" height="8.37" transform="translate(6241.2 484.15) rotate(180)"/><rect class="cls-2" x="2965.36" y="478.57" width="25.11" height="8.37" transform="translate(6241.2 512.05) rotate(180)"/><rect class="cls-2" x="2965.36" y="492.52" width="25.11" height="8.37" transform="translate(6241.2 539.96) rotate(180)"/><rect class="cls-2" x="2965.36" y="506.47" width="25.11" height="8.37" transform="translate(6241.2 567.86) rotate(180)"/><rect class="cls-2" x="2965.36" y="520.43" width="25.11" height="8.37" transform="translate(6241.2 595.77) rotate(180)"/><rect class="cls-2" x="2965.36" y="534.38" width="25.11" height="8.37" transform="translate(6241.2 623.67) rotate(180)"/><rect class="cls-2" x="2965.36" y="548.33" width="25.11" height="8.37" transform="translate(6241.2 651.58) rotate(180)"/><rect class="cls-2" x="2965.36" y="562.28" width="25.11" height="8.37" transform="translate(6241.2 679.48) rotate(180)"/><rect class="cls-2" x="2965.36" y="576.24" width="25.11" height="8.37" transform="translate(6241.2 707.39) rotate(180)"/><rect class="cls-2" x="2965.36" y="590.19" width="25.11" height="8.37" transform="translate(6241.2 735.29) rotate(180)"/><rect class="cls-2" x="2965.36" y="604.14" width="25.11" height="8.37" transform="translate(6241.2 763.2) rotate(180)"/><rect class="cls-2" x="2965.36" y="618.09" width="25.11" height="8.37" transform="translate(6241.2 791.1) rotate(180)"/><rect class="cls-2" x="2965.36" y="632.05" width="25.11" height="8.37" transform="translate(6241.2 819.01) rotate(180)"/><rect class="cls-2" x="2965.36" y="646" width="25.11" height="8.37" transform="translate(6241.2 846.91) rotate(180)"/><rect class="cls-2" x="2965.36" y="659.95" width="25.11" height="8.37" transform="translate(6241.2 874.82) rotate(180)"/><rect class="cls-2" x="2965.36" y="673.9" width="25.11" height="8.37" transform="translate(6241.2 902.72) rotate(180)"/><rect class="cls-1" x="2783.97" y="615.3" width="75.34" height="25.11" transform="translate(5928.66 802.27) rotate(180)"/><rect class="cls-2" x="2783.97" y="598.56" width="122.78" height="16.74" transform="translate(5976.1 760.41) rotate(180)"/><polygon class="cls-2" points="3162.01 184.97 3162.01 352.32 3260.66 352.32 3260.66 0 3475.57 0 3475.57 239.58 3593.6 239.58 3593.6 318.85 3711.63 318.85 3711.63 155.02 3891.31 155.02 3891.31 368.17 3975.86 368.17 3975.86 52.85 4155.55 52.85 4155.55 479.15 4155.55 539.05 4155.55 630.65 3068.64 630.65 3068.64 519.67 3068.64 479.15 3068.64 184.97 3162.01 184.97"/><rect class="cls-1" x="3548.57" y="640.42" width="33.49" height="443.69" transform="translate(7415.99 1271.07) rotate(180)"/><rect class="cls-1" x="3450.9" y="640.42" width="33.49" height="443.69" transform="translate(7220.66 1271.07) rotate(180)"/><rect class="cls-1" x="3499.73" y="640.42" width="33.49" height="443.69" transform="translate(7318.33 1271.07) rotate(180)"/><rect class="cls-1" x="3316.96" y="799.47" width="94.88" height="19.53" transform="translate(7014.16 1165.03) rotate(180)"/><rect class="cls-1" x="3316.96" y="835.75" width="94.88" height="19.53" transform="translate(7014.16 1237.58) rotate(180)"/><rect class="cls-1" x="3316.96" y="872.03" width="94.88" height="19.53" transform="translate(7014.16 1310.13) rotate(180)"/><rect class="cls-1" x="3316.96" y="908.3" width="94.88" height="19.53" transform="translate(7014.16 1382.69) rotate(180)"/><rect class="cls-1" x="3316.96" y="944.58" width="94.88" height="19.53" transform="translate(7014.16 1455.24) rotate(180)"/><rect class="cls-1" x="3316.96" y="980.86" width="94.88" height="19.53" transform="translate(7014.16 1527.79) rotate(180)"/><rect class="cls-1" x="3316.96" y="1017.13" width="94.88" height="19.53" transform="translate(7014.16 1600.35) rotate(180)"/><rect class="cls-1" x="3316.96" y="1053.41" width="94.88" height="19.53" transform="translate(7014.16 1672.9) rotate(180)"/><rect class="cls-1" x="3272.31" y="712.97" width="13.95" height="371.14" transform="translate(6843.94 1343.62) rotate(180)"/><rect class="cls-1" x="3249.99" y="712.97" width="13.95" height="371.14" transform="translate(6799.29 1343.62) rotate(180)"/><rect class="cls-1" x="3227.66" y="712.97" width="13.95" height="371.14" transform="translate(6754.65 1343.62) rotate(180)"/><rect class="cls-1" x="3205.34" y="712.97" width="13.95" height="371.14" transform="translate(6710 1343.62) rotate(180)"/><rect class="cls-1" x="3090.93" y="472.99" width="80.92" height="19.53" transform="translate(6548.15 512.05) rotate(180)"/><rect class="cls-1" x="2996.05" y="472.99" width="80.92" height="19.53" transform="translate(6358.4 512.05) rotate(180)"/><rect class="cls-1" x="3090.93" y="509.26" width="80.92" height="19.53" transform="translate(6548.15 584.61) rotate(180)"/><rect class="cls-1" x="2996.05" y="509.26" width="80.92" height="19.53" transform="translate(6358.4 584.61) rotate(180)"/><rect class="cls-1" x="3090.93" y="545.54" width="80.92" height="19.53" transform="translate(6548.15 657.16) rotate(180)"/><rect class="cls-1" x="2996.05" y="545.54" width="80.92" height="19.53" transform="translate(6358.4 657.16) rotate(180)"/><rect class="cls-1" x="3090.93" y="581.82" width="80.92" height="19.53" transform="translate(6548.15 729.71) rotate(180)"/><rect class="cls-1" x="2996.05" y="581.82" width="80.92" height="19.53" transform="translate(6358.4 729.71) rotate(180)"/><rect class="cls-1" x="3090.93" y="618.09" width="80.92" height="19.53" transform="translate(6548.15 802.27) rotate(180)"/><rect class="cls-1" x="2996.05" y="618.09" width="80.92" height="19.53" transform="translate(6358.4 802.27) rotate(180)"/><rect class="cls-1" x="3090.93" y="654.37" width="80.92" height="19.53" transform="translate(6548.15 874.82) rotate(180)"/><rect class="cls-1" x="2996.05" y="654.37" width="80.92" height="19.53" transform="translate(6358.4 874.82) rotate(180)"/><rect class="cls-1" x="3090.93" y="690.65" width="80.92" height="19.53" transform="translate(6548.15 947.37) rotate(180)"/><rect class="cls-1" x="2996.05" y="690.65" width="80.92" height="19.53" transform="translate(6358.4 947.37) rotate(180)"/><rect class="cls-1" x="3090.93" y="726.92" width="80.92" height="19.53" transform="translate(6548.15 1019.92) rotate(180)"/><rect class="cls-1" x="2996.05" y="726.92" width="80.92" height="19.53" transform="translate(6358.4 1019.92) rotate(180)"/><rect class="cls-1" x="3090.93" y="763.2" width="80.92" height="19.53" transform="translate(6548.15 1092.48) rotate(180)"/><rect class="cls-1" x="2996.05" y="763.2" width="80.92" height="19.53" transform="translate(6358.4 1092.48) rotate(180)"/><rect class="cls-1" x="3090.93" y="799.47" width="80.92" height="19.53" transform="translate(6548.15 1165.03) rotate(180)"/><rect class="cls-1" x="2996.05" y="799.47" width="80.92" height="19.53" transform="translate(6358.4 1165.03) rotate(180)"/><rect class="cls-1" x="3090.93" y="835.75" width="80.92" height="19.53" transform="translate(6548.15 1237.58) rotate(180)"/><rect class="cls-1" x="2996.05" y="835.75" width="80.92" height="19.53" transform="translate(6358.4 1237.58) rotate(180)"/><rect class="cls-1" x="3090.93" y="872.03" width="80.92" height="19.53" transform="translate(6548.15 1310.13) rotate(180)"/><rect class="cls-1" x="2996.05" y="872.03" width="80.92" height="19.53" transform="translate(6358.4 1310.13) rotate(180)"/><rect class="cls-1" x="3090.93" y="908.3" width="80.92" height="19.53" transform="translate(6548.15 1382.69) rotate(180)"/><rect class="cls-1" x="2996.05" y="908.3" width="80.92" height="19.53" transform="translate(6358.4 1382.69) rotate(180)"/><rect class="cls-1" x="3090.93" y="944.58" width="80.92" height="19.53" transform="translate(6548.15 1455.24) rotate(180)"/><rect class="cls-1" x="2996.05" y="944.58" width="80.92" height="19.53" transform="translate(6358.4 1455.24) rotate(180)"/><rect class="cls-1" x="3090.93" y="980.86" width="80.92" height="19.53" transform="translate(6548.15 1527.79) rotate(180)"/><rect class="cls-1" x="2996.05" y="980.86" width="80.92" height="19.53" transform="translate(6358.4 1527.79) rotate(180)"/><rect class="cls-1" x="3090.93" y="1017.13" width="80.92" height="19.53" transform="translate(6548.15 1600.35) rotate(180)"/><rect class="cls-1" x="2996.05" y="1017.13" width="80.92" height="19.53" transform="translate(6358.4 1600.35) rotate(180)"/><rect class="cls-1" x="3090.93" y="1053.41" width="80.92" height="19.53" transform="translate(6548.15 1672.9) rotate(180)"/><rect class="cls-1" x="2996.05" y="1053.41" width="80.92" height="19.53" transform="translate(6358.4 1672.9) rotate(180)"/><rect class="cls-1" x="2890.01" y="827.38" width="72.55" height="256.72" transform="translate(6137.95 1458.03) rotate(180)"/><rect class="cls-1" x="2848.16" y="654.37" width="11.16" height="429.74" transform="translate(5992.84 1285.02) rotate(180)"/><rect class="cls-1" x="2828.62" y="654.37" width="11.16" height="429.74" transform="translate(5953.78 1285.02) rotate(180)"/><rect class="cls-1" x="2809.09" y="654.37" width="11.16" height="429.74" transform="translate(5914.71 1285.02) rotate(180)"/><rect class="cls-1" x="2789.56" y="654.37" width="11.16" height="429.74" transform="translate(5875.64 1285.02) rotate(180)"/><rect class="cls-1" x="3623.91" y="835.75" width="58.6" height="248.35" transform="translate(7591.79 1466.4) rotate(180)"/><rect class="cls-1" x="3710.42" y="523.22" width="159.06" height="11.16" transform="translate(7865.26 604.14) rotate(180)"/><rect class="cls-1" x="3710.42" y="539.96" width="159.06" height="11.16" transform="translate(7865.26 637.63) rotate(180)"/><rect class="cls-1" x="3710.42" y="556.7" width="159.06" height="11.16" transform="translate(7865.26 671.11) rotate(180)"/><rect class="cls-1" x="3710.42" y="573.45" width="159.06" height="11.16" transform="translate(7865.26 704.6) rotate(180)"/><rect class="cls-1" x="3710.42" y="590.19" width="159.06" height="11.16" transform="translate(7865.26 738.08) rotate(180)"/><rect class="cls-1" x="3710.42" y="606.93" width="159.06" height="11.16" transform="translate(7865.26 771.57) rotate(180)"/><rect class="cls-1" x="3710.42" y="623.67" width="159.06" height="11.16" transform="translate(7865.26 805.06) rotate(180)"/><rect class="cls-1" x="3710.42" y="640.42" width="159.06" height="11.16" transform="translate(7865.26 838.54) rotate(180)"/><rect class="cls-1" x="3710.42" y="657.16" width="159.06" height="11.16" transform="translate(7865.26 872.03) rotate(180)"/><rect class="cls-1" x="3710.42" y="673.9" width="159.06" height="11.16" transform="translate(7865.26 905.51) rotate(180)"/><rect class="cls-1" x="3710.42" y="690.65" width="159.06" height="11.16" transform="translate(7865.26 939) rotate(180)"/><rect class="cls-1" x="3710.42" y="707.39" width="159.06" height="11.16" transform="translate(7865.26 972.49) rotate(180)"/><rect class="cls-1" x="3710.42" y="724.13" width="159.06" height="11.16" transform="translate(7865.26 1005.97) rotate(180)"/><rect class="cls-1" x="3710.42" y="740.87" width="159.06" height="11.16" transform="translate(7865.26 1039.46) rotate(180)"/><rect class="cls-1" x="3710.42" y="757.62" width="159.06" height="11.16" transform="translate(7865.26 1072.94) rotate(180)"/><rect class="cls-1" x="3710.42" y="774.36" width="159.06" height="11.16" transform="translate(7865.26 1106.43) rotate(180)"/><rect class="cls-1" x="3710.42" y="791.1" width="159.06" height="11.16" transform="translate(7865.26 1139.91) rotate(180)"/><rect class="cls-1" x="3710.42" y="807.85" width="159.06" height="11.16" transform="translate(7865.26 1173.4) rotate(180)"/><rect class="cls-1" x="3710.42" y="824.59" width="159.06" height="11.16" transform="translate(7865.26 1206.89) rotate(180)"/><rect class="cls-1" x="3710.42" y="841.33" width="159.06" height="11.16" transform="translate(7865.26 1240.37) rotate(180)"/><rect class="cls-1" x="3710.42" y="858.08" width="159.06" height="11.16" transform="translate(7865.26 1273.86) rotate(180)"/><rect class="cls-1" x="3710.42" y="874.82" width="159.06" height="11.16" transform="translate(7865.26 1307.34) rotate(180)"/><rect class="cls-1" x="3710.42" y="891.56" width="159.06" height="11.16" transform="translate(7865.26 1340.83) rotate(180)"/><rect class="cls-1" x="3710.42" y="908.3" width="159.06" height="11.16" transform="translate(7865.26 1374.32) rotate(180)"/><rect class="cls-1" x="3710.42" y="925.05" width="159.06" height="11.16" transform="translate(7865.26 1407.8) rotate(180)"/><rect class="cls-1" x="3710.42" y="941.79" width="159.06" height="11.16" transform="translate(7865.26 1441.29) rotate(180)"/><rect class="cls-1" x="3710.42" y="958.53" width="159.06" height="11.16" transform="translate(7865.26 1474.77) rotate(180)"/><rect class="cls-1" x="3710.42" y="975.28" width="159.06" height="11.16" transform="translate(7865.26 1508.26) rotate(180)"/><rect class="cls-1" x="3710.42" y="992.02" width="159.06" height="11.16" transform="translate(7865.26 1541.74) rotate(180)"/><rect class="cls-1" x="3710.42" y="1008.76" width="159.06" height="11.16" transform="translate(7865.26 1575.23) rotate(180)"/><rect class="cls-1" x="3710.42" y="1025.5" width="159.06" height="11.16" transform="translate(7865.26 1608.72) rotate(180)"/><rect class="cls-1" x="3710.42" y="1042.25" width="159.06" height="11.16" transform="translate(7865.26 1642.2) rotate(180)"/><rect class="cls-1" x="3710.42" y="1058.99" width="159.06" height="11.16" transform="translate(7865.26 1675.69) rotate(180)"/><rect class="cls-2" x="2876.06" y="654.37" width="30.7" height="44.65" transform="translate(6068.19 899.93) rotate(180)"/><rect class="cls-2" x="2876.06" y="718.55" width="30.7" height="44.65" transform="translate(6068.19 1028.29) rotate(180)"/><rect class="cls-1" x="890.87" y="245.56" width="47.44" height="108.83"/><path class="cls-1" d="M552.47,220.45h131.9a0,0,0,0,1,0,0V240a0,0,0,0,1,0,0H547.64a0,0,0,0,1,0,0v-14.7A4.83,4.83,0,0,1,552.47,220.45Z"/><rect class="cls-1" x="480.67" y="290.21" width="83.71" height="30.7"/><rect class="cls-2" x="251.85" y="170.22" width="22.32" height="11.16"/><rect class="cls-2" x="251.85" y="192.54" width="22.32" height="11.16"/><rect class="cls-2" x="251.85" y="214.87" width="22.32" height="11.16"/><rect class="cls-2" x="251.85" y="237.19" width="22.32" height="11.16"/><rect class="cls-2" x="251.85" y="259.52" width="22.32" height="11.16"/><rect class="cls-2" x="251.85" y="281.84" width="22.32" height="11.16"/><rect class="cls-2" x="251.85" y="304.16" width="22.32" height="11.16"/><rect class="cls-2" x="251.85" y="326.49" width="22.32" height="11.16"/><rect class="cls-2" x="251.85" y="348.81" width="22.32" height="11.16"/><rect class="cls-2" x="430.44" y="170.22" width="22.32" height="11.16"/><rect class="cls-2" x="430.44" y="192.54" width="22.32" height="11.16"/><rect class="cls-2" x="430.44" y="214.87" width="22.32" height="11.16"/><rect class="cls-2" x="430.44" y="237.19" width="22.32" height="11.16"/><rect class="cls-2" x="430.44" y="259.52" width="22.32" height="11.16"/><rect class="cls-2" x="430.44" y="281.84" width="22.32" height="11.16"/><rect class="cls-2" x="430.44" y="304.16" width="22.32" height="11.16"/><rect class="cls-1" x="0.7" y="25.11" width="150.69" height="27.9"/><rect class="cls-2" x="0.7" y="5.58" width="181.38" height="19.53"/><rect class="cls-1" x="179.29" y="108.83" width="19.53" height="259.52"/><rect class="cls-2" x="288.12" y="133.94" width="44.65" height="22.32"/><rect class="cls-2" x="374.63" y="133.94" width="44.65" height="22.32"/><rect class="cls-2" x="667.63" y="11.16" width="25.11" height="8.37"/><rect class="cls-2" x="667.63" y="25.11" width="25.11" height="8.37"/><rect class="cls-2" x="667.63" y="39.07" width="25.11" height="8.37"/><rect class="cls-2" x="667.63" y="53.02" width="25.11" height="8.37"/><rect class="cls-2" x="667.63" y="66.97" width="25.11" height="8.37"/><rect class="cls-2" x="667.63" y="80.92" width="25.11" height="8.37"/><rect class="cls-2" x="667.63" y="94.88" width="25.11" height="8.37"/><rect class="cls-2" x="667.63" y="108.83" width="25.11" height="8.37"/><rect class="cls-2" x="667.63" y="122.78" width="25.11" height="8.37"/><rect class="cls-2" x="667.63" y="136.73" width="25.11" height="8.37"/><rect class="cls-2" x="667.63" y="150.69" width="25.11" height="8.37"/><rect class="cls-2" x="667.63" y="164.64" width="25.11" height="8.37"/><rect class="cls-2" x="667.63" y="178.59" width="25.11" height="8.37"/><rect class="cls-2" x="667.63" y="192.54" width="25.11" height="8.37"/><rect class="cls-2" x="667.63" y="206.5" width="25.11" height="8.37"/><rect class="cls-2" x="667.63" y="220.45" width="25.11" height="8.37"/><rect class="cls-2" x="879.71" y="11.16" width="25.11" height="8.37"/><rect class="cls-2" x="879.71" y="25.11" width="25.11" height="8.37"/><rect class="cls-2" x="879.71" y="39.07" width="25.11" height="8.37"/><rect class="cls-2" x="879.71" y="53.02" width="25.11" height="8.37"/><rect class="cls-2" x="879.71" y="66.97" width="25.11" height="8.37"/><rect class="cls-2" x="879.71" y="80.92" width="25.11" height="8.37"/><rect class="cls-2" x="879.71" y="94.88" width="25.11" height="8.37"/><rect class="cls-2" x="879.71" y="108.83" width="25.11" height="8.37"/><rect class="cls-2" x="879.71" y="122.78" width="25.11" height="8.37"/><rect class="cls-2" x="879.71" y="136.73" width="25.11" height="8.37"/><rect class="cls-2" x="879.71" y="150.69" width="25.11" height="8.37"/><rect class="cls-2" x="879.71" y="164.64" width="25.11" height="8.37"/><rect class="cls-2" x="879.71" y="178.59" width="25.11" height="8.37"/><rect class="cls-2" x="879.71" y="192.54" width="25.11" height="8.37"/><rect class="cls-2" x="879.71" y="206.5" width="25.11" height="8.37"/><rect class="cls-2" x="879.71" y="220.45" width="25.11" height="8.37"/><rect class="cls-1" x="1010.86" y="161.85" width="75.34" height="25.11"/><rect class="cls-2" x="963.42" y="145.11" width="122.78" height="16.74"/><polygon class="cls-2" points="993.54 184.97 993.54 352.32 894.89 352.32 894.89 0 679.98 0 679.98 239.58 561.95 239.58 561.95 318.85 443.92 318.85 443.92 155.02 264.24 155.02 264.24 368.17 179.68 368.17 179.68 52.85 0 52.85 0 479.15 0 539.05 0 630.65 1086.9 630.65 1086.9 519.67 1086.9 479.15 1086.9 184.97 993.54 184.97"/><rect class="cls-1" x="288.12" y="186.96" width="33.49" height="443.69"/><rect class="cls-1" x="385.79" y="186.96" width="33.49" height="443.69"/><rect class="cls-1" x="336.96" y="186.96" width="33.49" height="443.69"/><rect class="cls-1" x="458.34" y="346.02" width="94.88" height="19.53"/><rect class="cls-1" x="458.34" y="382.3" width="94.88" height="19.53"/><rect class="cls-1" x="458.34" y="418.57" width="94.88" height="19.53"/><rect class="cls-1" x="458.34" y="454.85" width="94.88" height="19.53"/><rect class="cls-1" x="458.34" y="491.13" width="94.88" height="19.53"/><rect class="cls-1" x="458.34" y="527.4" width="94.88" height="19.53"/><rect class="cls-1" x="458.34" y="563.68" width="94.88" height="19.53"/><rect class="cls-1" x="458.34" y="599.96" width="94.88" height="19.53"/><rect class="cls-1" x="583.91" y="259.52" width="13.95" height="371.14"/><rect class="cls-1" x="606.24" y="259.52" width="13.95" height="371.14"/><rect class="cls-1" x="628.56" y="259.52" width="13.95" height="371.14"/><rect class="cls-1" x="650.89" y="259.52" width="13.95" height="371.14"/><rect class="cls-1" x="698.32" y="19.53" width="80.92" height="19.53"/><rect class="cls-1" x="793.2" y="19.53" width="80.92" height="19.53"/><rect class="cls-1" x="698.32" y="55.81" width="80.92" height="19.53"/><rect class="cls-1" x="793.2" y="55.81" width="80.92" height="19.53"/><rect class="cls-1" x="698.32" y="92.09" width="80.92" height="19.53"/><rect class="cls-1" x="793.2" y="92.09" width="80.92" height="19.53"/><rect class="cls-1" x="698.32" y="128.36" width="80.92" height="19.53"/><rect class="cls-1" x="793.2" y="128.36" width="80.92" height="19.53"/><rect class="cls-1" x="698.32" y="164.64" width="80.92" height="19.53"/><rect class="cls-1" x="793.2" y="164.64" width="80.92" height="19.53"/><rect class="cls-1" x="698.32" y="200.92" width="80.92" height="19.53"/><rect class="cls-1" x="793.2" y="200.92" width="80.92" height="19.53"/><rect class="cls-1" x="698.32" y="237.19" width="80.92" height="19.53"/><rect class="cls-1" x="793.2" y="237.19" width="80.92" height="19.53"/><rect class="cls-1" x="698.32" y="273.47" width="80.92" height="19.53"/><rect class="cls-1" x="793.2" y="273.47" width="80.92" height="19.53"/><rect class="cls-1" x="698.32" y="309.74" width="80.92" height="19.53"/><rect class="cls-1" x="793.2" y="309.74" width="80.92" height="19.53"/><rect class="cls-1" x="698.32" y="346.02" width="80.92" height="19.53"/><rect class="cls-1" x="793.2" y="346.02" width="80.92" height="19.53"/><rect class="cls-1" x="698.32" y="382.3" width="80.92" height="19.53"/><rect class="cls-1" x="793.2" y="382.3" width="80.92" height="19.53"/><rect class="cls-1" x="698.32" y="418.57" width="80.92" height="19.53"/><rect class="cls-1" x="793.2" y="418.57" width="80.92" height="19.53"/><rect class="cls-1" x="698.32" y="454.85" width="80.92" height="19.53"/><rect class="cls-1" x="793.2" y="454.85" width="80.92" height="19.53"/><rect class="cls-1" x="698.32" y="491.13" width="80.92" height="19.53"/><rect class="cls-1" x="793.2" y="491.13" width="80.92" height="19.53"/><rect class="cls-1" x="698.32" y="527.4" width="80.92" height="19.53"/><rect class="cls-1" x="793.2" y="527.4" width="80.92" height="19.53"/><rect class="cls-1" x="698.32" y="563.68" width="80.92" height="19.53"/><rect class="cls-1" x="793.2" y="563.68" width="80.92" height="19.53"/><rect class="cls-1" x="698.32" y="599.96" width="80.92" height="19.53"/><rect class="cls-1" x="793.2" y="599.96" width="80.92" height="19.53"/><rect class="cls-1" x="907.61" y="373.93" width="72.55" height="256.72"/><rect class="cls-1" x="1010.86" y="200.92" width="11.16" height="429.74"/><rect class="cls-1" x="1030.39" y="200.92" width="11.16" height="429.74"/><rect class="cls-1" x="1049.93" y="200.92" width="11.16" height="429.74"/><rect class="cls-1" x="1069.46" y="200.92" width="11.16" height="429.74"/><rect class="cls-1" x="187.66" y="382.3" width="58.6" height="248.35"/><rect class="cls-1" x="0.7" y="69.76" width="159.06" height="11.16"/><rect class="cls-1" x="0.7" y="86.51" width="159.06" height="11.16"/><rect class="cls-1" x="0.7" y="103.25" width="159.06" height="11.16"/><rect class="cls-1" x="0.7" y="119.99" width="159.06" height="11.16"/><rect class="cls-1" x="0.7" y="136.73" width="159.06" height="11.16"/><rect class="cls-1" x="0.7" y="153.48" width="159.06" height="11.16"/><rect class="cls-1" x="0.7" y="170.22" width="159.06" height="11.16"/><rect class="cls-1" x="0.7" y="186.96" width="159.06" height="11.16"/><rect class="cls-1" x="0.7" y="203.71" width="159.06" height="11.16"/><rect class="cls-1" x="0.7" y="220.45" width="159.06" height="11.16"/><rect class="cls-1" x="0.7" y="237.19" width="159.06" height="11.16"/><rect class="cls-1" x="0.7" y="253.93" width="159.06" height="11.16"/><rect class="cls-1" x="0.7" y="270.68" width="159.06" height="11.16"/><rect class="cls-1" x="0.7" y="287.42" width="159.06" height="11.16"/><rect class="cls-1" x="0.7" y="304.16" width="159.06" height="11.16"/><rect class="cls-1" x="0.7" y="320.91" width="159.06" height="11.16"/><rect class="cls-1" x="0.7" y="337.65" width="159.06" height="11.16"/><rect class="cls-1" x="0.7" y="354.39" width="159.06" height="11.16"/><rect class="cls-1" x="0.7" y="371.14" width="159.06" height="11.16"/><rect class="cls-1" x="0.7" y="387.88" width="159.06" height="11.16"/><rect class="cls-1" x="0.7" y="404.62" width="159.06" height="11.16"/><rect class="cls-1" x="0.7" y="421.36" width="159.06" height="11.16"/><rect class="cls-1" x="0.7" y="438.11" width="159.06" height="11.16"/><rect class="cls-1" x="0.7" y="454.85" width="159.06" height="11.16"/><rect class="cls-1" x="0.7" y="471.59" width="159.06" height="11.16"/><rect class="cls-1" x="0.7" y="488.34" width="159.06" height="11.16"/><rect class="cls-1" x="0.7" y="505.08" width="159.06" height="11.16"/><rect class="cls-1" x="0.7" y="521.82" width="159.06" height="11.16"/><rect class="cls-1" x="0.7" y="538.56" width="159.06" height="11.16"/><rect class="cls-1" x="0.7" y="555.31" width="159.06" height="11.16"/><rect class="cls-1" x="0.7" y="572.05" width="159.06" height="11.16"/><rect class="cls-1" x="0.7" y="588.79" width="159.06" height="11.16"/><rect class="cls-1" x="0.7" y="605.54" width="159.06" height="11.16"/><rect class="cls-2" x="963.42" y="200.92" width="30.7" height="44.65"/><rect class="cls-2" x="963.42" y="265.1" width="30.7" height="44.65"/><rect class="cls-1" x="934.57" y="699.02" width="47.44" height="108.83" transform="translate(2201.95 1053.41) rotate(180)"/><path class="cls-1" d="M1188.51,673.9h136.73a0,0,0,0,1,0,0v19.53a0,0,0,0,1,0,0h-131.9a4.83,4.83,0,0,1-4.83-4.83V673.9A0,0,0,0,1,1188.51,673.9Z" transform="translate(2799.12 913.88) rotate(180)"/><rect class="cls-1" x="1308.5" y="743.67" width="83.71" height="30.7" transform="translate(2986.08 1064.57) rotate(180)"/><rect class="cls-2" x="1598.71" y="623.67" width="22.32" height="11.16" transform="translate(3505.11 805.06) rotate(180)"/><rect class="cls-2" x="1598.71" y="646" width="22.32" height="11.16" transform="translate(3505.11 849.7) rotate(180)"/><rect class="cls-2" x="1598.71" y="668.32" width="22.32" height="11.16" transform="translate(3505.11 894.35) rotate(180)"/><rect class="cls-2" x="1598.71" y="690.65" width="22.32" height="11.16" transform="translate(3505.11 939) rotate(180)"/><rect class="cls-2" x="1598.71" y="712.97" width="22.32" height="11.16" transform="translate(3505.11 983.65) rotate(180)"/><rect class="cls-2" x="1598.71" y="735.29" width="22.32" height="11.16" transform="translate(3505.11 1028.29) rotate(180)"/><rect class="cls-2" x="1598.71" y="757.62" width="22.32" height="11.16" transform="translate(3505.11 1072.94) rotate(180)"/><rect class="cls-2" x="1598.71" y="779.94" width="22.32" height="11.16" transform="translate(3505.11 1117.59) rotate(180)"/><rect class="cls-2" x="1598.71" y="802.27" width="22.32" height="11.16" transform="translate(3505.11 1162.24) rotate(180)"/><rect class="cls-2" x="1420.12" y="623.67" width="22.32" height="11.16" transform="translate(3147.93 805.06) rotate(180)"/><rect class="cls-2" x="1420.12" y="646" width="22.32" height="11.16" transform="translate(3147.93 849.7) rotate(180)"/><rect class="cls-2" x="1420.12" y="668.32" width="22.32" height="11.16" transform="translate(3147.93 894.35) rotate(180)"/><rect class="cls-2" x="1420.12" y="690.65" width="22.32" height="11.16" transform="translate(3147.93 939) rotate(180)"/><rect class="cls-2" x="1420.12" y="712.97" width="22.32" height="11.16" transform="translate(3147.93 983.65) rotate(180)"/><rect class="cls-2" x="1420.12" y="735.29" width="22.32" height="11.16" transform="translate(3147.93 1028.29) rotate(180)"/><rect class="cls-2" x="1420.12" y="757.62" width="22.32" height="11.16" transform="translate(3147.93 1072.94) rotate(180)"/><rect class="cls-1" x="1721.49" y="478.57" width="150.69" height="27.9" transform="translate(3879.04 531.59) rotate(180)"/><rect class="cls-2" x="1690.8" y="459.04" width="181.38" height="19.53" transform="translate(3848.34 484.15) rotate(180)"/><rect class="cls-1" x="1674.05" y="562.28" width="19.53" height="259.52" transform="translate(3653.01 930.63) rotate(180)"/><rect class="cls-2" x="1540.11" y="587.4" width="44.65" height="22.32" transform="translate(3410.24 743.67) rotate(180)"/><rect class="cls-2" x="1453.6" y="587.4" width="44.65" height="22.32" transform="translate(3237.23 743.67) rotate(180)"/><rect class="cls-2" x="1180.14" y="464.62" width="25.11" height="8.37" transform="translate(2670.76 484.15) rotate(180)"/><rect class="cls-2" x="1180.14" y="478.57" width="25.11" height="8.37" transform="translate(2670.76 512.05) rotate(180)"/><rect class="cls-2" x="1180.14" y="492.52" width="25.11" height="8.37" transform="translate(2670.76 539.96) rotate(180)"/><rect class="cls-2" x="1180.14" y="506.47" width="25.11" height="8.37" transform="translate(2670.76 567.86) rotate(180)"/><rect class="cls-2" x="1180.14" y="520.43" width="25.11" height="8.37" transform="translate(2670.76 595.77) rotate(180)"/><rect class="cls-2" x="1180.14" y="534.38" width="25.11" height="8.37" transform="translate(2670.76 623.67) rotate(180)"/><rect class="cls-2" x="1180.14" y="548.33" width="25.11" height="8.37" transform="translate(2670.76 651.58) rotate(180)"/><rect class="cls-2" x="1180.14" y="562.28" width="25.11" height="8.37" transform="translate(2670.76 679.48) rotate(180)"/><rect class="cls-2" x="1180.14" y="576.24" width="25.11" height="8.37" transform="translate(2670.76 707.39) rotate(180)"/><rect class="cls-2" x="1180.14" y="590.19" width="25.11" height="8.37" transform="translate(2670.76 735.29) rotate(180)"/><rect class="cls-2" x="1180.14" y="604.14" width="25.11" height="8.37" transform="translate(2670.76 763.2) rotate(180)"/><rect class="cls-2" x="1180.14" y="618.09" width="25.11" height="8.37" transform="translate(2670.76 791.1) rotate(180)"/><rect class="cls-2" x="1180.14" y="632.05" width="25.11" height="8.37" transform="translate(2670.76 819.01) rotate(180)"/><rect class="cls-2" x="1180.14" y="646" width="25.11" height="8.37" transform="translate(2670.76 846.91) rotate(180)"/><rect class="cls-2" x="1180.14" y="659.95" width="25.11" height="8.37" transform="translate(2670.76 874.82) rotate(180)"/><rect class="cls-2" x="1180.14" y="673.9" width="25.11" height="8.37" transform="translate(2670.76 902.72) rotate(180)"/><rect class="cls-2" x="968.06" y="464.62" width="25.11" height="8.37" transform="translate(2246.6 484.15) rotate(180)"/><rect class="cls-2" x="968.06" y="478.57" width="25.11" height="8.37" transform="translate(2246.6 512.05) rotate(180)"/><rect class="cls-2" x="968.06" y="492.52" width="25.11" height="8.37" transform="translate(2246.6 539.96) rotate(180)"/><rect class="cls-2" x="968.06" y="506.47" width="25.11" height="8.37" transform="translate(2246.6 567.86) rotate(180)"/><rect class="cls-2" x="968.06" y="520.43" width="25.11" height="8.37" transform="translate(2246.6 595.77) rotate(180)"/><rect class="cls-2" x="968.06" y="534.38" width="25.11" height="8.37" transform="translate(2246.6 623.67) rotate(180)"/><rect class="cls-2" x="968.06" y="548.33" width="25.11" height="8.37" transform="translate(2246.6 651.58) rotate(180)"/><rect class="cls-2" x="968.06" y="562.28" width="25.11" height="8.37" transform="translate(2246.6 679.48) rotate(180)"/><rect class="cls-2" x="968.06" y="576.24" width="25.11" height="8.37" transform="translate(2246.6 707.39) rotate(180)"/><rect class="cls-2" x="968.06" y="590.19" width="25.11" height="8.37" transform="translate(2246.6 735.29) rotate(180)"/><rect class="cls-2" x="968.06" y="604.14" width="25.11" height="8.37" transform="translate(2246.6 763.2) rotate(180)"/><rect class="cls-2" x="968.06" y="618.09" width="25.11" height="8.37" transform="translate(2246.6 791.1) rotate(180)"/><rect class="cls-2" x="968.06" y="632.05" width="25.11" height="8.37" transform="translate(2246.6 819.01) rotate(180)"/><rect class="cls-2" x="968.06" y="646" width="25.11" height="8.37" transform="translate(2246.6 846.91) rotate(180)"/><rect class="cls-2" x="968.06" y="659.95" width="25.11" height="8.37" transform="translate(2246.6 874.82) rotate(180)"/><rect class="cls-2" x="968.06" y="673.9" width="25.11" height="8.37" transform="translate(2246.6 902.72) rotate(180)"/><rect class="cls-1" x="786.68" y="615.3" width="75.34" height="25.11" transform="translate(1934.07 802.27) rotate(180)"/><rect class="cls-2" x="786.68" y="598.56" width="122.78" height="16.74" transform="translate(1981.51 760.41) rotate(180)"/><polygon class="cls-2" points="1164.71 184.97 1164.71 352.32 1263.36 352.32 1263.36 0 1478.27 0 1478.27 239.58 1596.3 239.58 1596.3 318.85 1714.33 318.85 1714.33 155.02 1894.01 155.02 1894.01 368.17 1978.57 368.17 1978.57 52.85 2158.25 52.85 2158.25 479.15 2158.25 539.05 2158.25 630.65 1071.35 630.65 1071.35 519.67 1071.35 479.15 1071.35 184.97 1164.71 184.97"/><rect class="cls-1" x="1551.27" y="640.42" width="33.49" height="443.69" transform="translate(3421.4 1271.07) rotate(180)"/><rect class="cls-1" x="1453.6" y="640.42" width="33.49" height="443.69" transform="translate(3226.06 1271.07) rotate(180)"/><rect class="cls-1" x="1502.44" y="640.42" width="33.49" height="443.69" transform="translate(3323.73 1271.07) rotate(180)"/><rect class="cls-1" x="1319.66" y="799.47" width="94.88" height="19.53" transform="translate(3019.57 1165.03) rotate(180)"/><rect class="cls-1" x="1319.66" y="835.75" width="94.88" height="19.53" transform="translate(3019.57 1237.58) rotate(180)"/><rect class="cls-1" x="1319.66" y="872.03" width="94.88" height="19.53" transform="translate(3019.57 1310.13) rotate(180)"/><rect class="cls-1" x="1319.66" y="908.3" width="94.88" height="19.53" transform="translate(3019.57 1382.69) rotate(180)"/><rect class="cls-1" x="1319.66" y="944.58" width="94.88" height="19.53" transform="translate(3019.57 1455.24) rotate(180)"/><rect class="cls-1" x="1319.66" y="980.86" width="94.88" height="19.53" transform="translate(3019.57 1527.79) rotate(180)"/><rect class="cls-1" x="1319.66" y="1017.13" width="94.88" height="19.53" transform="translate(3019.57 1600.35) rotate(180)"/><rect class="cls-1" x="1319.66" y="1053.41" width="94.88" height="19.53" transform="translate(3019.57 1672.9) rotate(180)"/><rect class="cls-1" x="1275.01" y="712.97" width="13.95" height="371.14" transform="translate(2849.35 1343.62) rotate(180)"/><rect class="cls-1" x="1252.69" y="712.97" width="13.95" height="371.14" transform="translate(2804.7 1343.62) rotate(180)"/><rect class="cls-1" x="1230.36" y="712.97" width="13.95" height="371.14" transform="translate(2760.05 1343.62) rotate(180)"/><rect class="cls-1" x="1208.04" y="712.97" width="13.95" height="371.14" transform="translate(2715.4 1343.62) rotate(180)"/><rect class="cls-1" x="1093.63" y="472.99" width="80.92" height="19.53" transform="translate(2553.56 512.05) rotate(180)"/><rect class="cls-1" x="998.75" y="472.99" width="80.92" height="19.53" transform="translate(2363.8 512.05) rotate(180)"/><rect class="cls-1" x="1093.63" y="509.26" width="80.92" height="19.53" transform="translate(2553.56 584.61) rotate(180)"/><rect class="cls-1" x="998.75" y="509.26" width="80.92" height="19.53" transform="translate(2363.8 584.61) rotate(180)"/><rect class="cls-1" x="1093.63" y="545.54" width="80.92" height="19.53" transform="translate(2553.56 657.16) rotate(180)"/><rect class="cls-1" x="998.75" y="545.54" width="80.92" height="19.53" transform="translate(2363.8 657.16) rotate(180)"/><rect class="cls-1" x="1093.63" y="581.82" width="80.92" height="19.53" transform="translate(2553.56 729.71) rotate(180)"/><rect class="cls-1" x="998.75" y="581.82" width="80.92" height="19.53" transform="translate(2363.8 729.71) rotate(180)"/><rect class="cls-1" x="1093.63" y="618.09" width="80.92" height="19.53" transform="translate(2553.56 802.27) rotate(180)"/><rect class="cls-1" x="998.75" y="618.09" width="80.92" height="19.53" transform="translate(2363.8 802.27) rotate(180)"/><rect class="cls-1" x="1093.63" y="654.37" width="80.92" height="19.53" transform="translate(2553.56 874.82) rotate(180)"/><rect class="cls-1" x="998.75" y="654.37" width="80.92" height="19.53" transform="translate(2363.8 874.82) rotate(180)"/><rect class="cls-1" x="1093.63" y="690.65" width="80.92" height="19.53" transform="translate(2553.56 947.37) rotate(180)"/><rect class="cls-1" x="998.75" y="690.65" width="80.92" height="19.53" transform="translate(2363.8 947.37) rotate(180)"/><rect class="cls-1" x="1093.63" y="726.92" width="80.92" height="19.53" transform="translate(2553.56 1019.92) rotate(180)"/><rect class="cls-1" x="998.75" y="726.92" width="80.92" height="19.53" transform="translate(2363.8 1019.92) rotate(180)"/><rect class="cls-1" x="1093.63" y="763.2" width="80.92" height="19.53" transform="translate(2553.56 1092.48) rotate(180)"/><rect class="cls-1" x="998.75" y="763.2" width="80.92" height="19.53" transform="translate(2363.8 1092.48) rotate(180)"/><rect class="cls-1" x="1093.63" y="799.47" width="80.92" height="19.53" transform="translate(2553.56 1165.03) rotate(180)"/><rect class="cls-1" x="998.75" y="799.47" width="80.92" height="19.53" transform="translate(2363.8 1165.03) rotate(180)"/><rect class="cls-1" x="1093.63" y="835.75" width="80.92" height="19.53" transform="translate(2553.56 1237.58) rotate(180)"/><rect class="cls-1" x="998.75" y="835.75" width="80.92" height="19.53" transform="translate(2363.8 1237.58) rotate(180)"/><rect class="cls-1" x="1093.63" y="872.03" width="80.92" height="19.53" transform="translate(2553.56 1310.13) rotate(180)"/><rect class="cls-1" x="998.75" y="872.03" width="80.92" height="19.53" transform="translate(2363.8 1310.13) rotate(180)"/><rect class="cls-1" x="1093.63" y="908.3" width="80.92" height="19.53" transform="translate(2553.56 1382.69) rotate(180)"/><rect class="cls-1" x="998.75" y="908.3" width="80.92" height="19.53" transform="translate(2363.8 1382.69) rotate(180)"/><rect class="cls-1" x="1093.63" y="944.58" width="80.92" height="19.53" transform="translate(2553.56 1455.24) rotate(180)"/><rect class="cls-1" x="998.75" y="944.58" width="80.92" height="19.53" transform="translate(2363.8 1455.24) rotate(180)"/><rect class="cls-1" x="1093.63" y="980.86" width="80.92" height="19.53" transform="translate(2553.56 1527.79) rotate(180)"/><rect class="cls-1" x="998.75" y="980.86" width="80.92" height="19.53" transform="translate(2363.8 1527.79) rotate(180)"/><rect class="cls-1" x="1093.63" y="1017.13" width="80.92" height="19.53" transform="translate(2553.56 1600.35) rotate(180)"/><rect class="cls-1" x="998.75" y="1017.13" width="80.92" height="19.53" transform="translate(2363.8 1600.35) rotate(180)"/><rect class="cls-1" x="1093.63" y="1053.41" width="80.92" height="19.53" transform="translate(2553.56 1672.9) rotate(180)"/><rect class="cls-1" x="998.75" y="1053.41" width="80.92" height="19.53" transform="translate(2363.8 1672.9) rotate(180)"/><rect class="cls-1" x="892.72" y="827.38" width="72.55" height="256.72" transform="translate(2143.35 1458.03) rotate(180)"/><rect class="cls-1" x="850.86" y="654.37" width="11.16" height="429.74" transform="translate(1998.25 1285.02) rotate(180)"/><rect class="cls-1" x="831.33" y="654.37" width="11.16" height="429.74" transform="translate(1959.18 1285.02) rotate(180)"/><rect class="cls-1" x="811.79" y="654.37" width="11.16" height="429.74" transform="translate(1920.12 1285.02) rotate(180)"/><rect class="cls-1" x="792.26" y="654.37" width="11.16" height="429.74" transform="translate(1881.05 1285.02) rotate(180)"/><rect class="cls-1" x="1626.61" y="835.75" width="58.6" height="248.35" transform="translate(3597.2 1466.4) rotate(180)"/><rect class="cls-1" x="1713.12" y="523.22" width="159.06" height="11.16" transform="translate(3870.67 604.14) rotate(180)"/><rect class="cls-1" x="1713.12" y="539.96" width="159.06" height="11.16" transform="translate(3870.67 637.63) rotate(180)"/><rect class="cls-1" x="1713.12" y="556.7" width="159.06" height="11.16" transform="translate(3870.67 671.11) rotate(180)"/><rect class="cls-1" x="1713.12" y="573.45" width="159.06" height="11.16" transform="translate(3870.67 704.6) rotate(180)"/><rect class="cls-1" x="1713.12" y="590.19" width="159.06" height="11.16" transform="translate(3870.67 738.08) rotate(180)"/><rect class="cls-1" x="1713.12" y="606.93" width="159.06" height="11.16" transform="translate(3870.67 771.57) rotate(180)"/><rect class="cls-1" x="1713.12" y="623.67" width="159.06" height="11.16" transform="translate(3870.67 805.06) rotate(180)"/><rect class="cls-1" x="1713.12" y="640.42" width="159.06" height="11.16" transform="translate(3870.67 838.54) rotate(180)"/><rect class="cls-1" x="1713.12" y="657.16" width="159.06" height="11.16" transform="translate(3870.67 872.03) rotate(180)"/><rect class="cls-1" x="1713.12" y="673.9" width="159.06" height="11.16" transform="translate(3870.67 905.51) rotate(180)"/><rect class="cls-1" x="1713.12" y="690.65" width="159.06" height="11.16" transform="translate(3870.67 939) rotate(180)"/><rect class="cls-1" x="1713.12" y="707.39" width="159.06" height="11.16" transform="translate(3870.67 972.49) rotate(180)"/><rect class="cls-1" x="1713.12" y="724.13" width="159.06" height="11.16" transform="translate(3870.67 1005.97) rotate(180)"/><rect class="cls-1" x="1713.12" y="740.87" width="159.06" height="11.16" transform="translate(3870.67 1039.46) rotate(180)"/><rect class="cls-1" x="1713.12" y="757.62" width="159.06" height="11.16" transform="translate(3870.67 1072.94) rotate(180)"/><rect class="cls-1" x="1713.12" y="774.36" width="159.06" height="11.16" transform="translate(3870.67 1106.43) rotate(180)"/><rect class="cls-1" x="1713.12" y="791.1" width="159.06" height="11.16" transform="translate(3870.67 1139.91) rotate(180)"/><rect class="cls-1" x="1713.12" y="807.85" width="159.06" height="11.16" transform="translate(3870.67 1173.4) rotate(180)"/><rect class="cls-1" x="1713.12" y="824.59" width="159.06" height="11.16" transform="translate(3870.67 1206.89) rotate(180)"/><rect class="cls-1" x="1713.12" y="841.33" width="159.06" height="11.16" transform="translate(3870.67 1240.37) rotate(180)"/><rect class="cls-1" x="1713.12" y="858.08" width="159.06" height="11.16" transform="translate(3870.67 1273.86) rotate(180)"/><rect class="cls-1" x="1713.12" y="874.82" width="159.06" height="11.16" transform="translate(3870.67 1307.34) rotate(180)"/><rect class="cls-1" x="1713.12" y="891.56" width="159.06" height="11.16" transform="translate(3870.67 1340.83) rotate(180)"/><rect class="cls-1" x="1713.12" y="908.3" width="159.06" height="11.16" transform="translate(3870.67 1374.32) rotate(180)"/><rect class="cls-1" x="1713.12" y="925.05" width="159.06" height="11.16" transform="translate(3870.67 1407.8) rotate(180)"/><rect class="cls-1" x="1713.12" y="941.79" width="159.06" height="11.16" transform="translate(3870.67 1441.29) rotate(180)"/><rect class="cls-1" x="1713.12" y="958.53" width="159.06" height="11.16" transform="translate(3870.67 1474.77) rotate(180)"/><rect class="cls-1" x="1713.12" y="975.28" width="159.06" height="11.16" transform="translate(3870.67 1508.26) rotate(180)"/><rect class="cls-1" x="1713.12" y="992.02" width="159.06" height="11.16" transform="translate(3870.67 1541.74) rotate(180)"/><rect class="cls-1" x="1713.12" y="1008.76" width="159.06" height="11.16" transform="translate(3870.67 1575.23) rotate(180)"/><rect class="cls-1" x="1713.12" y="1025.5" width="159.06" height="11.16" transform="translate(3870.67 1608.72) rotate(180)"/><rect class="cls-1" x="1713.12" y="1042.25" width="159.06" height="11.16" transform="translate(3870.67 1642.2) rotate(180)"/><rect class="cls-1" x="1713.12" y="1058.99" width="159.06" height="11.16" transform="translate(3870.67 1675.69) rotate(180)"/><rect class="cls-2" x="878.76" y="654.37" width="30.7" height="44.65" transform="translate(2073.59 899.93) rotate(180)"/><rect class="cls-2" x="878.76" y="718.55" width="30.7" height="44.65" transform="translate(2073.59 1028.29) rotate(180)"/></svg>