<svg id="Layer_1" data-name="Layer 1" xmlns="http://www.w3.org/2000/svg" viewBox="0 0 3860 529.96"><defs><style>.cls-1{fill:#d61882;}</style></defs><polygon class="cls-1" points="3846.16 139.52 3846.16 206.5 3779.19 206.5 3779.19 55.81 3695.47 55.81 3695.47 131.15 3625.71 131.15 3625.71 0 3555.95 0 3555.95 223.24 3480.61 223.24 3480.61 92.09 3396.89 92.09 3396.89 167.43 3329.92 167.43 3329.92 80.92 3262.95 80.92 3262.95 195.33 3204.35 195.33 3204.35 13.95 3117.84 13.95 3117.84 106.04 3056.45 106.04 3056.45 167.43 3025.96 167.43 3011.8 167.43 2981.31 167.43 2981.31 106.04 2919.92 106.04 2919.92 13.95 2833.42 13.95 2833.42 195.33 2774.82 195.33 2774.82 80.92 2707.84 80.92 2707.84 167.43 2640.87 167.43 2640.87 92.09 2557.16 92.09 2557.16 223.24 2481.81 223.24 2481.81 0 2412.05 0 2412.05 131.15 2342.29 131.15 2342.29 55.81 2258.57 55.81 2258.57 206.5 2191.6 206.5 2191.6 139.52 2068.82 139.52 2068.82 178.59 2013.01 178.59 2013.01 106.04 1940.46 106.04 1940.46 211.84 1875.69 211.84 1875.69 61.16 1791.97 61.16 1791.97 136.5 1722.21 136.5 1722.21 5.35 1652.45 5.35 1652.45 228.59 1577.11 228.59 1577.11 97.43 1493.39 97.43 1493.39 172.78 1426.42 172.78 1426.42 86.27 1359.45 86.27 1359.45 200.68 1300.85 200.68 1300.85 19.3 1214.34 19.3 1214.34 111.39 1152.95 111.39 1152.95 172.78 1122.46 172.78 1108.3 172.78 1077.81 172.78 1077.81 111.39 1016.42 111.39 1016.42 19.3 929.91 19.3 929.91 200.68 871.31 200.68 871.31 86.27 804.34 86.27 804.34 172.78 737.37 172.78 737.37 97.43 653.66 97.43 653.66 228.59 578.31 228.59 578.31 5.35 508.55 5.35 508.55 136.5 438.79 136.5 438.79 61.16 355.07 61.16 355.07 211.84 288.1 211.84 288.1 144.87 165.32 144.87 165.32 183.94 109.51 183.94 109.51 111.39 36.96 111.39 36.96 198.53 0 198.53 0 529.96 36.96 529.96 1052.7 529.96 1108.3 529.96 1122.46 529.96 1178.07 529.96 3860 529.96 3860 404.62 3860 308.67 3860 139.52 3846.16 139.52"/></svg>