<svg id="Layer_1" data-name="Layer 1" xmlns="http://www.w3.org/2000/svg" viewBox="0 0 3947.17 675.3"><defs><style>.cls-1{fill:#9b216b;}</style></defs><polygon class="cls-1" points="3918.8 220.45 3918.8 200.91 3895.09 200.91 3895.09 136.73 3874.16 136.73 3874.16 0 3865.78 0 3865.78 136.73 3844.86 136.73 3844.86 200.91 3821.14 200.91 3821.14 220.45 3796.49 220.45 3796.49 346.02 3782.53 346.02 3782.53 326.49 3698.82 326.49 3698.82 346.02 3682.08 346.02 3682.08 287.42 3668.13 287.42 3668.13 276.26 3648.59 276.26 3648.59 287.42 3640.22 287.42 3640.22 276.26 3620.69 276.26 3620.69 287.42 3592.78 287.42 3581.62 287.42 3581.62 281.84 3592.78 281.84 3592.78 276.26 3581.62 276.26 3581.62 270.68 3592.78 270.68 3592.78 265.1 3581.62 265.1 3581.62 259.51 3592.78 259.51 3592.78 253.93 3581.62 253.93 3581.62 248.35 3592.78 248.35 3592.78 242.77 3581.62 242.77 3581.62 237.19 3592.78 237.19 3592.78 231.61 3581.62 231.61 3581.62 226.03 3592.78 226.03 3592.78 220.45 3581.62 220.45 3581.62 214.87 3592.78 214.87 3592.78 209.29 3581.62 209.29 3581.62 203.71 3592.78 203.71 3592.78 198.13 3581.62 198.13 3581.62 192.54 3592.78 192.54 3592.78 186.96 3581.62 186.96 3581.62 181.38 3592.78 181.38 3592.78 175.8 3581.62 175.8 3581.62 164.64 3400.24 164.64 3400.24 175.8 3391.87 175.8 3391.87 181.38 3400.24 181.38 3400.24 186.96 3391.87 186.96 3391.87 192.54 3400.24 192.54 3400.24 198.13 3391.87 198.13 3391.87 203.71 3400.24 203.71 3400.24 209.29 3391.87 209.29 3391.87 214.87 3400.24 214.87 3400.24 220.45 3391.87 220.45 3391.87 226.03 3400.24 226.03 3400.24 231.61 3391.87 231.61 3391.87 237.19 3400.24 237.19 3400.24 242.77 3391.87 242.77 3391.87 248.35 3400.24 248.35 3400.24 253.93 3391.87 253.93 3391.87 259.51 3400.24 259.51 3400.24 265.1 3391.87 265.1 3391.87 270.68 3400.24 270.68 3400.24 276.26 3391.87 276.26 3391.87 281.84 3400.24 281.84 3400.24 287.42 3391.87 287.42 3391.87 293 3400.24 293 3400.24 298.58 3391.87 298.58 3391.87 304.16 3400.24 304.16 3400.24 309.74 3391.87 309.74 3391.87 315.32 3400.24 315.32 3400.24 320.91 3391.87 320.91 3391.87 326.49 3400.24 326.49 3400.24 332.07 3391.87 332.07 3391.87 337.65 3400.24 337.65 3400.24 343.23 3391.87 343.23 3391.87 348.81 3400.24 348.81 3400.24 357.18 3271.88 357.18 3271.88 234.4 3280.25 234.4 3280.25 200.91 3271.88 200.91 3271.88 186.96 3280.25 186.96 3280.25 153.48 3271.88 153.48 3271.88 136.73 3249.55 136.73 3249.55 125.57 3280.25 125.57 3280.25 119.99 3140.72 119.99 3140.72 125.57 3174.21 125.57 3174.21 136.73 3151.88 136.73 3151.88 153.48 3143.51 153.48 3143.51 186.96 3151.88 186.96 3151.88 200.91 3143.51 200.91 3143.51 234.4 3151.88 234.4 3151.88 371.13 3076.54 371.13 3076.54 304.16 3034.68 304.16 3034.68 371.13 2998.41 371.13 2998.41 357.18 3006.78 357.18 3006.78 348.81 2998.41 348.81 2998.41 343.23 3006.78 343.23 3006.78 334.86 2998.41 334.86 2998.41 329.28 3006.78 329.28 3006.78 320.91 2998.41 320.91 2998.41 315.32 3006.78 315.32 3006.78 306.95 2998.41 306.95 2998.41 301.37 3006.78 301.37 3006.78 293 2998.41 293 2998.41 287.42 3006.78 287.42 3006.78 279.05 2998.41 279.05 2998.41 273.47 3006.78 273.47 3006.78 265.1 2998.41 265.1 2998.41 259.51 3006.78 259.51 3006.78 251.14 2998.41 251.14 2998.41 245.56 3006.78 245.56 3006.78 237.19 2998.41 237.19 2998.41 231.61 3006.78 231.61 3006.78 223.24 2998.41 223.24 2998.41 203.71 2928.85 203.71 2914.69 203.71 2845.13 203.71 2845.13 223.24 2836.76 223.24 2836.76 231.61 2845.13 231.61 2845.13 237.19 2836.76 237.19 2836.76 245.56 2845.13 245.56 2845.13 251.14 2836.76 251.14 2836.76 259.51 2845.13 259.51 2845.13 265.1 2836.76 265.1 2836.76 273.47 2845.13 273.47 2845.13 279.05 2836.76 279.05 2836.76 287.42 2845.13 287.42 2845.13 293 2836.76 293 2836.76 301.37 2845.13 301.37 2845.13 306.95 2836.76 306.95 2836.76 315.32 2845.13 315.32 2845.13 320.91 2836.76 320.91 2836.76 329.28 2845.13 329.28 2845.13 334.86 2836.76 334.86 2836.76 343.23 2845.13 343.23 2845.13 348.81 2836.76 348.81 2836.76 357.18 2845.13 357.18 2845.13 371.13 2808.86 371.13 2808.86 304.16 2767 304.16 2767 371.13 2691.66 371.13 2691.66 234.4 2700.03 234.4 2700.03 200.91 2691.66 200.91 2691.66 186.96 2700.03 186.96 2700.03 153.48 2691.66 153.48 2691.66 136.73 2669.33 136.73 2669.33 125.57 2702.82 125.57 2702.82 119.99 2563.29 119.99 2563.29 125.57 2593.99 125.57 2593.99 136.73 2571.66 136.73 2571.66 153.48 2563.29 153.48 2563.29 186.96 2571.66 186.96 2571.66 200.91 2563.29 200.91 2563.29 234.4 2571.66 234.4 2571.66 357.18 2443.3 357.18 2443.3 348.81 2451.67 348.81 2451.67 343.23 2443.3 343.23 2443.3 337.65 2451.67 337.65 2451.67 332.07 2443.3 332.07 2443.3 326.49 2451.67 326.49 2451.67 320.91 2443.3 320.91 2443.3 315.32 2451.67 315.32 2451.67 309.74 2443.3 309.74 2443.3 304.16 2451.67 304.16 2451.67 298.58 2443.3 298.58 2443.3 293 2451.67 293 2451.67 287.42 2443.3 287.42 2443.3 281.84 2451.67 281.84 2451.67 276.26 2443.3 276.26 2443.3 270.68 2451.67 270.68 2451.67 265.1 2443.3 265.1 2443.3 259.51 2451.67 259.51 2451.67 253.93 2443.3 253.93 2443.3 248.35 2451.67 248.35 2451.67 242.77 2443.3 242.77 2443.3 237.19 2451.67 237.19 2451.67 231.61 2443.3 231.61 2443.3 226.03 2451.67 226.03 2451.67 220.45 2443.3 220.45 2443.3 214.87 2451.67 214.87 2451.67 209.29 2443.3 209.29 2443.3 203.71 2451.67 203.71 2451.67 198.13 2443.3 198.13 2443.3 192.54 2451.67 192.54 2451.67 186.96 2443.3 186.96 2443.3 181.38 2451.67 181.38 2451.67 175.8 2443.3 175.8 2443.3 164.64 2261.92 164.64 2261.92 175.8 2250.76 175.8 2250.76 181.38 2261.92 181.38 2261.92 186.96 2250.76 186.96 2250.76 192.54 2261.92 192.54 2261.92 198.13 2250.76 198.13 2250.76 203.71 2261.92 203.71 2261.92 209.29 2250.76 209.29 2250.76 214.87 2261.92 214.87 2261.92 220.45 2250.76 220.45 2250.76 226.03 2261.92 226.03 2261.92 231.61 2250.76 231.61 2250.76 237.19 2261.92 237.19 2261.92 242.77 2250.76 242.77 2250.76 248.35 2261.92 248.35 2261.92 253.93 2250.76 253.93 2250.76 259.51 2261.92 259.51 2261.92 265.1 2250.76 265.1 2250.76 270.68 2261.92 270.68 2261.92 276.26 2250.76 276.26 2250.76 281.84 2261.92 281.84 2261.92 287.42 2250.76 287.42 2222.85 287.42 2222.85 276.26 2203.32 276.26 2203.32 287.42 2194.95 287.42 2194.95 276.26 2175.41 276.26 2175.41 287.42 2161.46 287.42 2161.46 346.02 2144.72 346.02 2144.72 326.49 2061.01 326.49 2061.01 346.02 2050.81 346.02 2050.81 220.45 2047.05 220.45 2022.44 220.45 2022.44 200.91 2022.4 200.91 1998.72 200.91 1998.72 136.73 1998.68 136.73 1977.79 136.73 1977.79 0 1977.76 0 1969.42 0 1969.38 0 1969.38 136.73 1948.49 136.73 1948.45 136.73 1948.45 200.91 1924.77 200.91 1924.74 200.91 1924.74 220.45 1900.12 220.45 1896.37 220.45 1896.37 346.02 1886.17 346.02 1886.17 326.49 1802.45 326.49 1802.45 346.02 1785.71 346.02 1785.71 287.42 1771.76 287.42 1771.76 276.26 1752.22 276.26 1752.22 287.42 1743.85 287.42 1743.85 276.26 1724.32 276.26 1724.32 287.42 1696.41 287.42 1685.25 287.42 1685.25 281.84 1696.41 281.84 1696.41 276.26 1685.25 276.26 1685.25 270.68 1696.41 270.68 1696.41 265.1 1685.25 265.1 1685.25 259.51 1696.41 259.51 1696.41 253.93 1685.25 253.93 1685.25 248.35 1696.41 248.35 1696.41 242.77 1685.25 242.77 1685.25 237.19 1696.41 237.19 1696.41 231.61 1685.25 231.61 1685.25 226.03 1696.41 226.03 1696.41 220.45 1685.25 220.45 1685.25 214.87 1696.41 214.87 1696.41 209.29 1685.25 209.29 1685.25 203.71 1696.41 203.71 1696.41 198.13 1685.25 198.13 1685.25 192.54 1696.41 192.54 1696.41 186.96 1685.25 186.96 1685.25 181.38 1696.41 181.38 1696.41 175.8 1685.25 175.8 1685.25 164.64 1503.87 164.64 1503.87 175.8 1495.5 175.8 1495.5 181.38 1503.87 181.38 1503.87 186.96 1495.5 186.96 1495.5 192.54 1503.87 192.54 1503.87 198.13 1495.5 198.13 1495.5 203.71 1503.87 203.71 1503.87 209.29 1495.5 209.29 1495.5 214.87 1503.87 214.87 1503.87 220.45 1495.5 220.45 1495.5 226.03 1503.87 226.03 1503.87 231.61 1495.5 231.61 1495.5 237.19 1503.87 237.19 1503.87 242.77 1495.5 242.77 1495.5 248.35 1503.87 248.35 1503.87 253.93 1495.5 253.93 1495.5 259.51 1503.87 259.51 1503.87 265.1 1495.5 265.1 1495.5 270.68 1503.87 270.68 1503.87 276.26 1495.5 276.26 1495.5 281.84 1503.87 281.84 1503.87 287.42 1495.5 287.42 1495.5 293 1503.87 293 1503.87 298.58 1495.5 298.58 1495.5 304.16 1503.87 304.16 1503.87 309.74 1495.5 309.74 1495.5 315.32 1503.87 315.32 1503.87 320.91 1495.5 320.91 1495.5 326.49 1503.87 326.49 1503.87 332.07 1495.5 332.07 1495.5 337.65 1503.87 337.65 1503.87 343.23 1495.5 343.23 1495.5 348.81 1503.87 348.81 1503.87 357.18 1375.51 357.18 1375.51 234.4 1383.88 234.4 1383.88 200.91 1375.51 200.91 1375.51 186.96 1383.88 186.96 1383.88 153.48 1375.51 153.48 1375.51 136.73 1353.18 136.73 1353.18 125.57 1383.88 125.57 1383.88 119.99 1244.36 119.99 1244.36 125.57 1277.84 125.57 1277.84 136.73 1255.52 136.73 1255.52 153.48 1247.15 153.48 1247.15 186.96 1255.52 186.96 1255.52 200.91 1247.15 200.91 1247.15 234.4 1255.52 234.4 1255.52 371.13 1180.17 371.13 1180.17 304.16 1138.32 304.16 1138.32 371.13 1102.04 371.13 1102.04 357.18 1110.41 357.18 1110.41 348.81 1102.04 348.81 1102.04 343.23 1110.41 343.23 1110.41 334.86 1102.04 334.86 1102.04 329.28 1110.41 329.28 1110.41 320.91 1102.04 320.91 1102.04 315.32 1110.41 315.32 1110.41 306.95 1102.04 306.95 1102.04 301.37 1110.41 301.37 1110.41 293 1102.04 293 1102.04 287.42 1110.41 287.42 1110.41 279.05 1102.04 279.05 1102.04 273.47 1110.41 273.47 1110.41 265.1 1102.04 265.1 1102.04 259.51 1110.41 259.51 1110.41 251.14 1102.04 251.14 1102.04 245.56 1110.41 245.56 1110.41 237.19 1102.04 237.19 1102.04 231.61 1110.41 231.61 1110.41 223.24 1102.04 223.24 1102.04 203.71 1032.48 203.71 1018.33 203.71 948.77 203.71 948.77 223.24 940.39 223.24 940.39 231.61 948.77 231.61 948.77 237.19 940.39 237.19 940.39 245.56 948.77 245.56 948.77 251.14 940.39 251.14 940.39 259.51 948.77 259.51 948.77 265.1 940.39 265.1 940.39 273.47 948.77 273.47 948.77 279.05 940.39 279.05 940.39 287.42 948.77 287.42 948.77 293 940.39 293 940.39 301.37 948.77 301.37 948.77 306.95 940.39 306.95 940.39 315.32 948.77 315.32 948.77 320.91 940.39 320.91 940.39 329.28 948.77 329.28 948.77 334.86 940.39 334.86 940.39 343.23 948.77 343.23 948.77 348.81 940.39 348.81 940.39 357.18 948.77 357.18 948.77 371.13 912.49 371.13 912.49 304.16 870.63 304.16 870.63 371.13 795.29 371.13 795.29 234.4 803.66 234.4 803.66 200.91 795.29 200.91 795.29 186.96 803.66 186.96 803.66 153.48 795.29 153.48 795.29 136.73 772.97 136.73 772.97 125.57 806.45 125.57 806.45 119.99 666.93 119.99 666.93 125.57 697.62 125.57 697.62 136.73 675.3 136.73 675.3 153.48 666.93 153.48 666.93 186.96 675.3 186.96 675.3 200.91 666.93 200.91 666.93 234.4 675.3 234.4 675.3 357.18 546.94 357.18 546.94 348.81 555.31 348.81 555.31 343.23 546.94 343.23 546.94 337.65 555.31 337.65 555.31 332.07 546.94 332.07 546.94 326.49 555.31 326.49 555.31 320.91 546.94 320.91 546.94 315.32 555.31 315.32 555.31 309.74 546.94 309.74 546.94 304.16 555.31 304.16 555.31 298.58 546.94 298.58 546.94 293 555.31 293 555.31 287.42 546.94 287.42 546.94 281.84 555.31 281.84 555.31 276.26 546.94 276.26 546.94 270.68 555.31 270.68 555.31 265.1 546.94 265.1 546.94 259.51 555.31 259.51 555.31 253.93 546.94 253.93 546.94 248.35 555.31 248.35 555.31 242.77 546.94 242.77 546.94 237.19 555.31 237.19 555.31 231.61 546.94 231.61 546.94 226.03 555.31 226.03 555.31 220.45 546.94 220.45 546.94 214.87 555.31 214.87 555.31 209.29 546.94 209.29 546.94 203.71 555.31 203.71 555.31 198.13 546.94 198.13 546.94 192.54 555.31 192.54 555.31 186.96 546.94 186.96 546.94 181.38 555.31 181.38 555.31 175.8 546.94 175.8 546.94 164.64 365.55 164.64 365.55 175.8 354.39 175.8 354.39 181.38 365.55 181.38 365.55 186.96 354.39 186.96 354.39 192.54 365.55 192.54 365.55 198.13 354.39 198.13 354.39 203.71 365.55 203.71 365.55 209.29 354.39 209.29 354.39 214.87 365.55 214.87 365.55 220.45 354.39 220.45 354.39 226.03 365.55 226.03 365.55 231.61 354.39 231.61 354.39 237.19 365.55 237.19 365.55 242.77 354.39 242.77 354.39 248.35 365.55 248.35 365.55 253.93 354.39 253.93 354.39 259.51 365.55 259.51 365.55 265.1 354.39 265.1 354.39 270.68 365.55 270.68 365.55 276.26 354.39 276.26 354.39 281.84 365.55 281.84 365.55 287.42 354.39 287.42 326.49 287.42 326.49 276.26 306.95 276.26 306.95 287.42 298.58 287.42 298.58 276.26 279.05 276.26 279.05 287.42 265.1 287.42 265.1 346.02 248.35 346.02 248.35 326.49 164.64 326.49 164.64 346.02 150.69 346.02 150.69 220.45 126.04 220.45 126.04 200.91 102.32 200.91 102.32 136.73 81.39 136.73 81.39 0 73.02 0 73.02 136.73 52.09 136.73 52.09 200.91 28.37 200.91 28.37 220.45 0 220.45 0 438.47 0 673.72 0 675.3 150.69 675.3 150.69 673.72 265.1 673.72 265.1 675.3 365.55 675.3 546.94 675.3 546.94 673.72 789.71 673.72 789.71 675.3 962.72 675.3 962.72 673.72 1088.09 673.72 1088.09 675.3 1261.1 675.3 1261.1 673.72 1503.87 673.72 1503.87 675.3 1685.25 675.3 1785.71 675.3 1785.71 673.72 1896.37 673.72 1896.37 675.3 1900.12 675.3 2047.05 675.3 2050.81 675.3 2050.81 673.72 2161.46 673.72 2161.46 675.3 2261.92 675.3 2443.3 675.3 2443.3 673.72 2686.07 673.72 2686.07 675.3 2859.09 675.3 2859.09 673.72 2984.45 673.72 2984.45 675.3 3157.47 675.3 3157.47 673.72 3400.24 673.72 3400.24 675.3 3581.62 675.3 3682.08 675.3 3682.08 673.72 3796.49 673.72 3796.49 675.3 3947.17 675.3 3947.17 673.72 3947.17 438.47 3947.17 220.45 3918.8 220.45"/></svg>