<svg id="Layer_1" data-name="Layer 1" xmlns="http://www.w3.org/2000/svg" viewBox="0 0 3500.81 277.31"><defs><style>.cls-1{fill:#f285b5;}</style></defs><path class="cls-1" d="M1504.84,111.62H1052.78a20.93,20.93,0,0,1-20.93-20.93h0a20.93,20.93,0,0,1,20.93-20.93h452.06a20.93,20.93,0,0,1,20.93,20.93h0A20.93,20.93,0,0,1,1504.84,111.62Z" transform="translate(-128.44 -69.76)"/><path class="cls-1" d="M1804.82,192.54H1601.11a13.94,13.94,0,0,1-13.95-13.95h0a14,14,0,0,1,13.95-14h203.71a14,14,0,0,1,14,14h0A14,14,0,0,1,1804.82,192.54Z" transform="translate(-128.44 -69.76)"/><path class="cls-1" d="M1997.36,111.62H1922a11.17,11.17,0,0,1-11.17-11.16h0A11.16,11.16,0,0,1,1922,89.3h75.34a11.16,11.16,0,0,1,11.16,11.16h0A11.16,11.16,0,0,1,1997.36,111.62Z" transform="translate(-128.44 -69.76)"/><path class="cls-1" d="M2592.93,111.62H3045a20.93,20.93,0,0,0,20.92-20.93h0A20.93,20.93,0,0,0,3045,69.76H2592.93A20.93,20.93,0,0,0,2572,90.69h0A20.93,20.93,0,0,0,2592.93,111.62Z" transform="translate(-128.44 -69.76)"/><path class="cls-1" d="M2293,192.54h203.7a14,14,0,0,0,14-13.95h0a14,14,0,0,0-14-14H2293a14,14,0,0,0-13.95,14h0A13.94,13.94,0,0,0,2293,192.54Z" transform="translate(-128.44 -69.76)"/><path class="cls-1" d="M2101.41,111.62h75.34a11.16,11.16,0,0,0,11.16-11.16h0a11.16,11.16,0,0,0-11.16-11.16h-75.34a11.16,11.16,0,0,0-11.17,11.16h0A11.17,11.17,0,0,0,2101.41,111.62Z" transform="translate(-128.44 -69.76)"/><path class="cls-1" d="M601.42,185.57h-452a20.93,20.93,0,0,1-20.93-20.93h0a20.93,20.93,0,0,1,20.93-20.93H601.42a20.93,20.93,0,0,1,20.93,20.93h0A20.93,20.93,0,0,1,601.42,185.57Z" transform="translate(-128.44 -69.76)"/><path class="cls-1" d="M3608.32,213.47H3156.26a20.93,20.93,0,0,1-20.93-20.93h0a20.93,20.93,0,0,1,20.93-20.92h452.06a20.92,20.92,0,0,1,20.92,20.92h0A20.93,20.93,0,0,1,3608.32,213.47Z" transform="translate(-128.44 -69.76)"/><path class="cls-1" d="M747.42,347.07H543.72a14,14,0,0,1-14-13.95h0a14,14,0,0,1,14-13.95h203.7a13.94,13.94,0,0,1,14,13.95h0A13.94,13.94,0,0,1,747.42,347.07Z" transform="translate(-128.44 -69.76)"/><path class="cls-1" d="M3010.08,238.24H2806.37a13.94,13.94,0,0,1-13.95-14h0a14,14,0,0,1,13.95-13.95h203.71a14,14,0,0,1,14,13.95h0A14,14,0,0,1,3010.08,238.24Z" transform="translate(-128.44 -69.76)"/><path class="cls-1" d="M940,266.15H864.62A11.16,11.16,0,0,1,853.46,255h0a11.17,11.17,0,0,1,11.16-11.17H940A11.17,11.17,0,0,1,951.13,255h0A11.16,11.16,0,0,1,940,266.15Z" transform="translate(-128.44 -69.76)"/><path class="cls-1" d="M2658.5,255h-75.34A11.17,11.17,0,0,1,2572,243.82h0a11.16,11.16,0,0,1,11.16-11.16h75.34a11.17,11.17,0,0,1,11.17,11.16h0A11.17,11.17,0,0,1,2658.5,255Z" transform="translate(-128.44 -69.76)"/><path class="cls-1" d="M1235.56,347.07h203.7a13.94,13.94,0,0,0,14-13.95h0a13.94,13.94,0,0,0-14-13.95h-203.7a14,14,0,0,0-14,13.95h0A14,14,0,0,0,1235.56,347.07Z" transform="translate(-128.44 -69.76)"/><path class="cls-1" d="M1044,266.15h75.35A11.16,11.16,0,0,0,1130.52,255h0a11.17,11.17,0,0,0-11.16-11.17H1044A11.17,11.17,0,0,0,1032.85,255h0A11.16,11.16,0,0,0,1044,266.15Z" transform="translate(-128.44 -69.76)"/></svg>